<?xml version="1.0" encoding="UTF-8" standalone="no"?>
<svg
   xmlns:dc="http://purl.org/dc/elements/1.1/"
   xmlns:cc="http://creativecommons.org/ns#"
   xmlns:rdf="http://www.w3.org/1999/02/22-rdf-syntax-ns#"
   xmlns:svg="http://www.w3.org/2000/svg"
   xmlns="http://www.w3.org/2000/svg"
   xmlns:sodipodi="http://sodipodi.sourceforge.net/DTD/sodipodi-0.dtd"
   xmlns:inkscape="http://www.inkscape.org/namespaces/inkscape"
   version="1.1"
   x="0px"
   y="0px"
   viewBox="1 -1 1485 300"
   xml:space="preserve"
   id="svg847"
   sodipodi:docname="getonenow.svg"
   width="1485"
   height="300"
   inkscape:version="0.92.4 (5da689c313, 2019-01-14)"><metadata
   id="metadata853"><rdf:RDF><cc:Work
       rdf:about=""><dc:format>image/svg+xml</dc:format><dc:type
         rdf:resource="http://purl.org/dc/dcmitype/StillImage" /><dc:title></dc:title></cc:Work></rdf:RDF></metadata><defs
   id="defs851" /><sodipodi:namedview
   pagecolor="#ffffff"
   bordercolor="#666666"
   borderopacity="1"
   objecttolerance="10"
   gridtolerance="10"
   guidetolerance="10"
   inkscape:pageopacity="0"
   inkscape:pageshadow="2"
   inkscape:window-width="1920"
   inkscape:window-height="1137"
   id="namedview849"
   showgrid="false"
   inkscape:snap-grids="true"
   inkscape:zoom="0.57875767"
   inkscape:cx="375.10648"
   inkscape:cy="152.58216"
   inkscape:window-x="-8"
   inkscape:window-y="333"
   inkscape:window-maximized="1"
   inkscape:current-layer="svg847" /><rect
   style="opacity:1;fill:#0055d4;fill-opacity:0.97989953;stroke:none;stroke-width:1.03886461;stroke-miterlimit:4;stroke-dasharray:none;stroke-opacity:1"
   id="rect5119"
   width="1479.5238"
   height="292.63824"
   x="3.6058006"
   y="2.3405199"
   rx="11.304861" /><path
   style="fill:#000000;stroke-width:2.6975677"
   inkscape:connector-curvature="0"
   id="path835"
   d="m 301.86221,75.451967 -0.84663,-0.773569 C 299.88674,73.646937 297.91132,72.0998 294.80705,72.0998 H 100.08529 L 99.23866,67.716244 C 97.263235,55.854819 85.975007,47.087671 72.711343,47.087671 H 52.956972 c -4.797474,0 -8.183964,3.352131 -8.183964,7.477867 0,4.1257 3.668668,7.477832 8.183964,7.477832 h 20.036596 c 5.079699,0 9.312771,3.352167 10.159387,7.735724 l 16.932335,93.086436 c 0,0.77356 0.28211,1.54713 0.5644,2.06288 l 2.82207,15.98713 c 2.53984,14.18216 16.36789,24.75431 31.88919,24.75431 H 266.3043 c 4.79748,0 8.18397,-3.35218 8.18397,-7.47787 0,-4.12574 -3.66867,-7.47787 -8.18397,-7.47787 H 135.07877 c -7.90178,0 -14.3925,-5.15712 -15.5213,-11.86142 l -1.69324,-8.5093 h 152.39093 c 1.69325,0.25775 3.10427,0.25775 4.5153,-0.51571 1.97546,-1.03142 3.66867,-2.83641 4.2331,-4.89927 l 23.70523,-82.77218 c 1.12884,-2.320706 0.56444,-4.641413 -0.84658,-6.704263 z m -17.21456,12.11928 -19.75437,68.074303 H 115.32435 l -12.1348,-68.074303 z" /><path
   style="fill:#000000;stroke-width:2.6975677"
   inkscape:connector-curvature="0"
   id="path837"
   d="m 137.6186,212.88982 c -15.23909,0 -27.65612,11.34572 -27.65612,25.27002 0,13.92427 12.41703,25.26999 27.65612,25.26999 15.23912,0 27.65615,-11.34572 27.65615,-25.26999 0,-13.9243 -12.41703,-25.27002 -27.65615,-25.27002 z m 0,15.21359 c 6.20854,0 10.72382,4.38356 10.72382,10.05643 0,5.41499 -5.07968,10.05644 -11.006,10.05644 -5.92632,0 -10.72384,-4.64145 -10.72384,-10.05644 0,-5.41502 4.79752,-10.05643 11.00602,-10.05643 z" /><path
   style="fill:#000000;stroke-width:2.6975677"
   inkscape:connector-curvature="0"
   id="path839"
   d="m 229.05316,212.88982 c -15.23907,0 -27.65611,11.34572 -27.65611,25.27002 0,13.92427 12.13481,25.52784 27.65611,25.52784 15.52131,0 27.65616,-11.34571 27.65616,-25.26998 0,-13.92431 -12.41704,-25.52788 -27.65616,-25.52788 z m -0.28211,15.21359 c 6.20851,0 11.00602,4.38356 11.00602,10.05643 0,5.41499 -5.0797,10.05644 -11.00602,10.05644 -5.92631,0 -11.006,-4.64145 -11.006,-10.05644 -0.28212,-5.41502 4.79747,-10.05643 11.006,-10.05643 z" /><text
   x="332.89789"
   y="201.42859"
   font-size="5px"
   font-weight="bold"
   id="text845"
   style="font-weight:bold;font-size:17.65413284px;font-family:'Helvetica Neue', Helvetica, Arial-Unicode, Arial, Sans-serif;fill:#ffffff;stroke:none;stroke-width:3.53082681;stroke-opacity:1"><tspan
     style="font-style:normal;font-variant:normal;font-weight:bold;font-stretch:normal;font-size:150.64862061px;line-height:1.25;font-family:sans-serif;-inkscape-font-specification:'sans-serif Bold';fill:#ffffff;stroke:none;stroke-width:3.53082681;stroke-opacity:1"
     id="tspan4558">Get One Now</tspan></text>

<path
   style="opacity:1;fill:#ffffff;fill-opacity:0.97989951;stroke:none;stroke-width:0.27003995;stroke-miterlimit:4;stroke-dasharray:none;stroke-opacity:1"
   d="m 114.98367,152.88851 c -0.26058,-1.44581 -2.9814,-16.70269 -6.04657,-33.90413 l -5.57303,-31.275395 90.44891,-0.06779 c 49.74687,-0.03743 90.4882,-0.02824 90.53626,0.02119 0.0738,0.07379 -18.51118,64.423005 -19.34491,66.980255 l -0.28564,0.87624 h -74.6307 -74.63073 z"
   id="path5134"
   inkscape:connector-curvature="0" /><path
   style="opacity:1;fill:#ffffff;fill-opacity:0.97989951;stroke:none;stroke-width:0.27003995;stroke-miterlimit:4;stroke-dasharray:none;stroke-opacity:1"
   d="m 133.80478,247.45619 c -2.80104,-0.99587 -5.01321,-2.99761 -6.24367,-5.64972 -0.99736,-2.14963 -0.98772,-5.17509 0.0247,-7.35548 0.95944,-2.06885 3.01363,-4.07345 5.26906,-5.14187 1.70111,-0.80581 2.0072,-0.86093 4.78317,-0.86093 2.75814,0 3.08845,0.0583 4.71828,0.83434 2.22785,1.06066 3.90718,2.74014 4.94308,4.94348 1.58059,3.3619 0.97801,7.13562 -1.59391,9.98246 -3.01123,3.33306 -7.90379,4.66838 -11.89949,3.24772 z"
   id="path5136"
   inkscape:connector-curvature="0" /><path
   style="opacity:1;fill:#ffffff;fill-opacity:0.97989951;stroke:none;stroke-width:0.27003995;stroke-miterlimit:4;stroke-dasharray:none;stroke-opacity:1"
   d="m 225.39664,247.50534 c -1.88454,-0.62527 -3.34781,-1.56864 -4.73798,-3.05452 -1.45614,-1.55642 -1.87741,-2.27847 -2.42165,-4.15059 -1.25966,-4.33307 1.07648,-8.7944 5.75133,-10.98338 3.47023,-1.62489 8.13703,-1.2574 11.25246,0.88607 4.33046,2.97944 5.6209,8.45865 2.97808,12.64512 -1.02514,1.62394 -3.51053,3.70461 -5.20652,4.3587 -2.14798,0.82843 -5.60986,0.96416 -7.61572,0.2987 z"
   id="path5138"
   inkscape:connector-curvature="0" />
</svg>