<?xml version="1.0" encoding="UTF-8" standalone="no"?>
<svg
   xmlns:dc="http://purl.org/dc/elements/1.1/"
   xmlns:cc="http://creativecommons.org/ns#"
   xmlns:rdf="http://www.w3.org/1999/02/22-rdf-syntax-ns#"
   xmlns:svg="http://www.w3.org/2000/svg"
   xmlns="http://www.w3.org/2000/svg"
   xmlns:sodipodi="http://sodipodi.sourceforge.net/DTD/sodipodi-0.dtd"
   xmlns:inkscape="http://www.inkscape.org/namespaces/inkscape"
   version="1.1"
   x="0px"
   y="0px"
   viewBox="1 -1 3000 600"
   xml:space="preserve"
   id="svg847"
   sodipodi:docname="intgetonenow.svg"
   width="3000"
   height="600"
   inkscape:version="0.92.4 (5da689c313, 2019-01-14)"><metadata
     id="metadata853"><rdf:RDF><cc:Work
         rdf:about=""><dc:format>image/svg+xml</dc:format><dc:type
           rdf:resource="http://purl.org/dc/dcmitype/StillImage" /><dc:title></dc:title></cc:Work></rdf:RDF></metadata><defs
     id="defs851" /><sodipodi:namedview
     pagecolor="#ffffff"
     bordercolor="#666666"
     borderopacity="1"
     objecttolerance="10"
     gridtolerance="10"
     guidetolerance="10"
     inkscape:pageopacity="0"
     inkscape:pageshadow="2"
     inkscape:window-width="1920"
     inkscape:window-height="1137"
     id="namedview849"
     showgrid="false"
     inkscape:snap-grids="true"
     inkscape:zoom="1.6369739"
     inkscape:cx="774.698"
     inkscape:cy="236.35691"
     inkscape:window-x="-8"
     inkscape:window-y="333"
     inkscape:window-maximized="1"
     inkscape:current-layer="svg847" /><rect
     style="opacity:1;fill:#217821;fill-opacity:0.97989951;stroke:none;stroke-width:0.29422703;stroke-miterlimit:4;stroke-dasharray:none;stroke-opacity:1"
     id="rect5119"
     width="419.03043"
     height="82.880943"
     x="479.65125"
     y="285.67932"
     rx="3.2017605" /><path
     style="fill:#000000;stroke-width:0.76400453"
     inkscape:connector-curvature="0"
     id="path835"
     d="m 564.12336,306.38593 -0.23978,-0.21909 c -0.31971,-0.29213 -0.87919,-0.73031 -1.75838,-0.73031 h -55.14906 l -0.23978,-1.24151 c -0.55948,-3.35939 -3.75653,-5.84242 -7.51306,-5.84242 h -5.59483 c -1.35874,0 -2.31786,0.94939 -2.31786,2.11788 0,1.16848 1.03904,2.11787 2.31786,2.11787 h 5.67476 c 1.43867,0 2.63756,0.9494 2.87734,2.19091 l 4.79557,26.36392 c 0,0.21909 0.0799,0.43818 0.15985,0.58425 l 0.79927,4.52787 c 0.71933,4.01667 4.63571,7.01091 9.03165,7.01091 h 37.08575 c 1.35874,0 2.31786,-0.9494 2.31786,-2.11788 0,-1.16849 -1.03904,-2.11788 -2.31786,-2.11788 h -37.16567 c -2.23794,0 -4.07624,-1.4606 -4.39594,-3.35939 l -0.47956,-2.41 h 43.16013 c 0.47956,0.073 0.87919,0.073 1.27882,-0.14606 0.55949,-0.29212 1.03904,-0.80333 1.1989,-1.38757 l 6.71379,-23.44272 c 0.31971,-0.65727 0.15986,-1.31454 -0.23977,-1.89878 z m -4.8755,3.43242 -5.59483,19.27999 h -42.36088 l -3.43682,-19.27999 z" /><path
     style="fill:#000000;stroke-width:0.76400453"
     inkscape:connector-curvature="0"
     id="path837"
     d="m 517.60632,345.31105 c -4.31601,0 -7.83276,3.21333 -7.83276,7.15697 0,3.94363 3.51675,7.15696 7.83276,7.15696 4.31602,0 7.83277,-3.21333 7.83277,-7.15696 0,-3.94364 -3.51675,-7.15697 -7.83277,-7.15697 z m 0,4.30879 c 1.75838,0 3.0372,1.24151 3.0372,2.84818 0,1.53363 -1.43867,2.84818 -3.11712,2.84818 -1.67845,0 -3.0372,-1.31455 -3.0372,-2.84818 0,-1.53364 1.35875,-2.84818 3.11712,-2.84818 z" /><path
     style="fill:#000000;stroke-width:0.76400453"
     inkscape:connector-curvature="0"
     id="path839"
     d="m 543.5024,345.31105 c -4.31601,0 -7.83276,3.21333 -7.83276,7.15697 0,3.94363 3.43682,7.22999 7.83276,7.22999 4.39594,0 7.83277,-3.21333 7.83277,-7.15696 0,-3.94364 -3.51675,-7.23 -7.83277,-7.23 z m -0.0799,4.30879 c 1.75837,0 3.11712,1.24151 3.11712,2.84818 0,1.53363 -1.43867,2.84818 -3.11712,2.84818 -1.67845,0 -3.11712,-1.31455 -3.11712,-2.84818 -0.0799,-1.53364 1.35874,-2.84818 3.11712,-2.84818 z" /><text
     x="572.91327"
     y="354.52667"
     font-size="5px"
     font-weight="bold"
     id="text845"
     style="font-weight:bold;font-size:5px;font-family:'Helvetica Neue', Helvetica, Arial-Unicode, Arial, Sans-serif;fill:#ffffff;stroke:none;stroke-opacity:1"><tspan
       style="font-style:normal;font-variant:normal;font-weight:bold;font-stretch:normal;font-size:42.66666794px;line-height:1.25;font-family:sans-serif;-inkscape-font-specification:'sans-serif Bold';fill:#ffffff;stroke:none;stroke-opacity:1"
       id="tspan4558">Get One Now</tspan></text>
<path
     style="opacity:1;fill:#ffffff;fill-opacity:0.97989951;stroke:none;stroke-width:0.07648066;stroke-miterlimit:4;stroke-dasharray:none;stroke-opacity:1"
     d="m 510.19566,329.31749 c -0.0738,-0.40948 -0.84439,-4.73053 -1.71251,-9.60232 l -1.57839,-8.85781 25.61692,-0.0192 c 14.0893,-0.0106 25.62805,-0.008 25.64166,0.006 0.0209,0.0209 -5.24273,18.24587 -5.47886,18.97013 l -0.0809,0.24817 h -21.13689 -21.1369 z"
     id="path5134"
     inkscape:connector-curvature="0"
     transform="translate(1,-1)" /><path
     style="opacity:1;fill:#ffffff;fill-opacity:0.97989951;stroke:none;stroke-width:0.07648066;stroke-miterlimit:4;stroke-dasharray:none;stroke-opacity:1"
     d="m 515.52617,356.10093 c -0.79331,-0.28205 -1.41984,-0.84898 -1.76833,-1.60011 -0.28247,-0.60882 -0.27974,-1.46569 0.007,-2.08322 0.27173,-0.58594 0.85352,-1.15368 1.4923,-1.45628 0.48179,-0.22822 0.56848,-0.24383 1.35469,-0.24383 0.78116,0 0.87471,0.0165 1.33631,0.2363 0.63097,0.3004 1.10659,0.77606 1.39998,1.40009 0.44765,0.95216 0.27699,2.02095 -0.45143,2.82723 -0.85284,0.94399 -2.23851,1.32218 -3.37017,0.91982 z"
     id="path5136"
     inkscape:connector-curvature="0"
     transform="translate(1,-1)" /><path
     style="opacity:1;fill:#ffffff;fill-opacity:0.97989951;stroke:none;stroke-width:0.07648066;stroke-miterlimit:4;stroke-dasharray:none;stroke-opacity:1"
     d="m 541.4668,356.11485 c -0.53374,-0.17709 -0.94817,-0.44427 -1.34189,-0.8651 -0.41241,-0.44081 -0.53172,-0.64531 -0.68586,-1.17553 -0.35676,-1.22721 0.30488,-2.49075 1.62889,-3.11071 0.98284,-0.4602 2.30457,-0.35612 3.18692,0.25095 1.22647,0.84384 1.59195,2.39566 0.84345,3.58135 -0.29034,0.45993 -0.99425,1.04922 -1.47459,1.23447 -0.60835,0.23463 -1.58882,0.27307 -2.15692,0.0846 z"
     id="path5138"
     inkscape:connector-curvature="0"
     transform="translate(1,-1)" /><text
     xml:space="preserve"
     style="font-style:normal;font-weight:normal;font-size:40px;line-height:1.25;font-family:sans-serif;letter-spacing:0px;word-spacing:0px;fill:#000000;fill-opacity:1;stroke:none"
     x="634.55267"
     y="317.0481"
     id="text5142"><tspan
       sodipodi:role="line"
       id="tspan5140"
       x="634.55267"
       y="317.0481"
       style="font-style:normal;font-variant:normal;font-weight:bold;font-stretch:normal;font-size:26.66666603px;font-family:sans-serif;-inkscape-font-specification:'sans-serif Bold';fill:#ffffff">International</tspan></text>
</svg>